<?xml version="1.0" standalone="no"?><!DOCTYPE svg PUBLIC "-//W3C//DTD SVG 1.1//EN" "http://www.w3.org/Graphics/SVG/1.1/DTD/svg11.dtd"><svg t="1595006943416" class="icon" viewBox="0 0 1024 1024" version="1.1" xmlns="http://www.w3.org/2000/svg" p-id="4464" xmlns:xlink="http://www.w3.org/1999/xlink" width="200" height="200"><defs><style type="text/css"></style></defs><path d="M745.780475 289.636658H279.264309c-11.118192 0-20.130712-9.01252-20.130712-20.130712 0-11.117186 9.01252-20.130712 20.130712-20.130712h466.515159c11.118192 0 20.130712 9.013526 20.130712 20.130712 0.001007 11.118192-9.01252 20.130712-20.129705 20.130712zM684.928352 492.46868h-405.664043c-11.118192 0-20.130712-9.01252-20.130712-20.130712 0-11.117186 9.01252-20.130712 20.130712-20.130712h405.664043c11.118192 0 20.130712 9.013526 20.130712 20.130712 0 11.118192-9.01252 20.130712-20.130712 20.130712zM563.228133 695.303721h-283.963824c-11.118192 0-20.130712-9.013526-20.130712-20.130712s9.01252-20.130712 20.130712-20.130712h283.963824c11.118192 0 20.130712 9.013526 20.130712 20.130712s-9.01252 20.130712-20.130712 20.130712z" p-id="4465"></path><path d="M538.107017 998.683617c-3.690966 0-6.053305-0.053346-6.940063-0.077504H130.186321c-16.650112 0-30.196068-13.545956-30.196068-30.196068V55.512451c0-16.650112 13.545956-30.196068 30.196068-30.196068h763.627358c16.650112 0 30.196068 13.545956 30.196068 30.196068v667.630032l-0.036235 0.603921c-3.674861 61.099731-24.360175 113.540235-61.482215 155.864051-30.054147 34.266498-70.85608 61.821417-121.271435 81.900795-86.60333 34.491962-177.359625 37.172366-203.112845 37.172367z m-397.85534-40.338928h391.543355l0.33417 0.011072c0.007046 0 2.131842 0.066431 5.977815 0.066432 23.941456 0 108.270015-2.474065 188.216118-34.315819 98.550907-39.248849 151.513804-107.272538 157.425188-202.185825V65.577807H140.251677v892.766882z" p-id="4466"></path></svg>